<?xml version="1.0" encoding="UTF-8"?>
<svg version="1.1" xmlns="http://www.w3.org/2000/svg" width="356" height="419">
<path d="M0 0 C15.60486118 6.88741053 31.6997374 12.11933904 47.98080444 17.15776062 C49.72176392 17.69868347 49.72176392 17.69868347 51.49789429 18.25053406 C70.99823827 24.21948811 90.94023108 28.20598586 111.05111694 31.50151062 C111.70966675 31.6105069 112.36821655 31.71950317 113.04672241 31.83180237 C116.19248519 32.35146718 119.3391446 32.85604709 122.49154663 33.33403015 C130.33488302 34.59644662 136.70914357 35.90674114 142.45736694 41.61869812 C144.77013743 46.99144186 144.48054045 51.99524072 144.35580444 57.78276062 C144.34001343 59.07963806 144.32422241 60.3765155 144.30795288 61.71269226 C144.24209691 66.19575843 144.11586886 70.67631421 143.98080444 75.15776062 C143.95675537 75.98535889 143.9327063 76.81295715 143.90792847 77.66563416 C142.63024356 120.67796936 140.14840968 163.90847044 126.98080444 205.15776062 C126.72605347 205.96310242 126.47130249 206.76844421 126.20883179 207.59819031 C113.79851835 246.26857135 94.04657537 284.94158082 66.17611694 314.78666687 C64.33664895 316.77342323 62.56687873 318.79378593 60.80111694 320.84526062 C56.63472862 325.62010389 52.21278627 330.11776661 47.73080444 334.59526062 C46.8881604 335.437099 46.04551636 336.27893738 45.17733765 337.14628601 C40.1900943 342.08456422 35.18356256 346.7510955 29.64096069 351.06010437 C26.98269863 353.15626697 24.44602801 355.34988188 21.90390015 357.58354187 C11.51775439 366.67653139 0.37607913 374.02760249 -11.45669556 381.09526062 C-12.40480103 381.66365662 -13.35290649 382.23205261 -14.32974243 382.81767273 C-20.9612878 386.72083442 -26.43332402 389.43625974 -34.26919556 389.53276062 C-35.30560181 389.56112 -36.34200806 389.58947937 -37.40982056 389.61869812 C-46.99475593 388.39464793 -54.63789677 383.13320434 -62.45669556 377.78276062 C-63.50003052 377.07667664 -64.54336548 376.37059265 -65.61831665 375.64311218 C-89.93321597 359.08213302 -114.02074965 340.83756628 -133.01919556 318.15776062 C-133.49389282 317.5954071 -133.96859009 317.03305359 -134.45767212 316.45365906 C-164.86122191 280.29859767 -187.36384491 239.0582137 -199.01919556 193.15776062 C-199.20820435 192.42976257 -199.39721313 191.70176453 -199.59194946 190.95170593 C-210.23944836 148.99652057 -212.47224759 100.77256571 -212.51919556 57.59526062 C-212.52350586 56.91020447 -212.52781616 56.22514832 -212.53225708 55.51933289 C-212.56414839 43.99735577 -212.56414839 43.99735577 -209.01919556 39.15776062 C-202.25183874 34.50047406 -194.64628377 34.00046308 -186.69018555 33.06364441 C-182.64079119 32.58138278 -178.59964384 32.0385061 -174.55825806 31.49369812 C-173.33760902 31.3294635 -173.33760902 31.3294635 -172.09230042 31.16191101 C-134.96823833 26.07383804 -97.3944551 14.95427405 -63.57388306 -1.34223938 C-38.11316963 -13.59972649 -24.996195 -11.04754244 0 0 Z M-54.83169556 13.84526062 C-56.90403272 14.79367591 -58.97873063 15.73668404 -61.05458069 16.67738342 C-62.4122144 17.29402681 -63.76777131 17.91526445 -65.12113953 18.54121399 C-68.32912023 20.01152518 -71.52212444 21.3757029 -74.85879517 22.52836609 C-76.03063354 22.93329285 -77.20247192 23.3382196 -78.40982056 23.75541687 C-79.44783813 24.0867865 -80.48585571 24.41815613 -81.55532837 24.75956726 C-84.27247139 25.98541227 -84.27247139 25.98541227 -85.3265686 28.98466492 C-86.63446158 35.0518492 -86.40483376 41.38329275 -84.01919556 47.15776062 C-82.11604242 49.78279943 -80.94801758 50.84701502 -77.89419556 51.86869812 C-73.97706627 52.26253992 -70.58154796 51.28459798 -66.83169556 50.28276062 C-60.55315569 48.71079038 -54.5104544 47.41253699 -48.01919556 47.15776062 C-47.22255493 47.11779968 -46.42591431 47.07783875 -45.60513306 47.03666687 C-32.44393805 46.69869056 -19.32943151 48.80297068 -6.56411743 51.83647156 C-1.59066352 52.98335783 2.86955404 53.50371862 7.98080444 53.15776062 C10.27739872 51.16608493 10.27739872 51.16608493 11.98080444 48.15776062 C17.1428081 40.53989462 22.75415913 34.46442195 31.98080444 32.15776062 C31.03540622 29.69085384 31.03540622 29.69085384 27.23861694 28.81791687 C25.52889939 28.28146115 23.81784256 27.74926378 22.10580444 27.22026062 C10.93969426 23.64311991 0.14742171 19.29310824 -10.67935181 14.80619812 C-11.73396606 14.37146179 -12.78858032 13.93672546 -13.87515259 13.48881531 C-15.97998298 12.59771923 -18.06995497 11.6707232 -20.14370728 10.70951843 C-33.67718181 4.57031099 -42.00928944 7.85809273 -54.83169556 13.84526062 Z M-103.70669556 32.81791687 C-104.86588501 33.19657898 -106.02507446 33.57524109 -107.21939087 33.96537781 C-108.1463678 34.27251709 -108.1463678 34.27251709 -109.09207153 34.58586121 C-137.33126138 43.88205869 -166.49968391 48.99032861 -196.01919556 52.15776062 C-194.16270854 80.64706009 -192.17537003 109.11132716 -189.45669556 137.53276062 C-189.3570047 138.59434387 -189.25731384 139.65592712 -189.15460205 140.74967957 C-187.54630807 157.76986598 -185.81902768 174.86347688 -181.33169556 191.40776062 C-181.08258423 192.34450623 -180.8334729 193.28125183 -180.57681274 194.24638367 C-178.57185496 201.57739121 -176.24475581 208.78566222 -173.76919556 215.97026062 C-173.42799683 216.96122742 -173.0867981 217.95219421 -172.73526001 218.97319031 C-171.10049255 224.00034639 -171.10049255 224.00034639 -168.01919556 228.15776062 C-164.86175673 222.9961319 -161.80418918 217.81023567 -158.95669556 212.47026062 C-156.59922744 208.09121693 -154.01560504 204.1235967 -151.01919556 200.15776062 C-139.13684549 202.16070801 -127.68398204 217.43423398 -120.76919556 226.78276062 C-115.43166303 234.3023559 -112.01939343 242.47955667 -109.01919556 251.15776062 C-108.65825806 252.18514343 -108.29732056 253.21252625 -107.92544556 254.27104187 C-104.32266224 266.33035825 -104.02339002 280.88343916 -110.01919556 292.15776062 C-112.9447044 297.14051232 -116.30583324 301.73029016 -120.01919556 306.15776062 C-117.70919556 308.79776062 -115.39919556 311.43776062 -113.01919556 314.15776062 C-109.02252151 310.40461152 -105.94490268 306.45198492 -102.89419556 301.90776062 C-102.42191528 301.21102234 -101.94963501 300.51428406 -101.46304321 299.7964325 C-99.97325051 297.58911302 -98.49458108 295.37473174 -97.01919556 293.15776062 C-96.54610962 292.44942078 -96.07302368 291.74108093 -95.58560181 291.01127625 C-88.91415748 280.9856293 -82.66006054 270.79953885 -77.01919556 260.15776062 C-76.65664673 259.48809265 -76.2940979 258.81842468 -75.92056274 258.12846375 C-66.44491482 240.42596209 -62.54037917 219.22814748 -63.01919556 199.15776062 C-58.77898683 200.69020789 -57.17552826 203.44641556 -54.75357056 207.13432312 C-54.16139992 208.03073265 -54.16139992 208.03073265 -53.55726624 208.94525146 C-52.28296918 210.88379124 -51.02472119 212.83201844 -49.76919556 214.78276062 C-49.3402298 215.44458344 -48.91126404 216.10640625 -48.46929932 216.7882843 C-31.45153365 243.08309445 -19.48369707 270.98790821 -25.14419556 302.90776062 C-30.28826394 325.21474876 -42.70734483 341.62435507 -60.01919556 356.15776062 C-58.84724028 359.67362645 -58.1618396 359.97462533 -55.08950806 361.82182312 C-54.29415649 362.3039325 -53.49880493 362.78604187 -52.67935181 363.28276062 C-51.42444946 364.02526062 -51.42444946 364.02526062 -50.14419556 364.78276062 C-49.31532837 365.285495 -48.48646118 365.78822937 -47.63247681 366.30619812 C-43.00188569 369.10085173 -43.00188569 369.10085173 -38.01919556 371.15776062 C-34.99300053 367.8476263 -31.99787259 364.51064331 -29.01919556 361.15776062 C-28.57543579 360.6601825 -28.13167603 360.16260437 -27.67446899 359.64994812 C-3.61662375 332.51311618 7.94411797 303.70107041 5.98080444 267.15776062 C5.30841765 260.9750821 3.85765133 255.07682722 1.98080444 249.15776062 C1.7664978 248.47713562 1.55219116 247.79651062 1.33139038 247.09526062 C-2.45398583 235.45812154 -7.98838087 224.80043583 -14.30825806 214.35307312 C-14.86344116 213.42228943 -14.86344116 213.42228943 -15.42984009 212.47270203 C-16.45493954 210.76481557 -17.50199459 209.07016218 -18.55044556 207.37651062 C-20.24864837 203.65491722 -20.44275613 201.20565204 -20.01919556 197.15776062 C-17.52222865 193.33428005 -14.88940685 190.98925847 -11.20669556 188.34526062 C-1.21716786 181.06475738 5.7234398 170.9185749 8.41830444 158.78276062 C10.45505516 144.01631793 6.84571397 130.25330933 -2.06216431 118.31791687 C-7.5545455 112.25546817 -14.40833722 108.59399144 -22.56997681 107.82182312 C-30.31832632 107.74136259 -36.39411687 107.9548945 -43.01919556 112.15776062 C-43.69208618 112.58186218 -44.36497681 113.00596375 -45.05825806 113.44291687 C-75.60069672 134.61035988 -83.91350063 177.52748624 -92.01919556 211.15776062 C-96.0326417 209.87424137 -99.20921639 208.64724396 -102.58169556 206.09526062 C-103.66644165 205.30442078 -103.66644165 205.30442078 -104.77310181 204.49760437 C-110.86546213 198.15095423 -113.09791076 190.30801963 -115.20669556 181.97026062 C-117.66260778 172.69058089 -120.47730723 163.61618897 -123.59945679 154.54597473 C-133.66378992 125.23210259 -137.87321591 94.09136929 -124.33169556 65.09526062 C-117.45250674 52.0092849 -107.43916189 40.25773867 -95.01919556 32.15776062 C-98.75282347 30.91321798 -100.01426235 31.58121814 -103.70669556 32.81791687 Z M36.98080444 33.15776062 C45.15150025 53.6884908 53.71115682 74.34569902 64.85971069 93.45854187 C82.19763312 123.23771796 79.6414264 155.56354645 71.16439819 187.70463562 C70.86831665 188.83095398 70.86831665 188.83095398 70.56625366 189.98002625 C70.18742053 191.38919702 69.79412076 192.79459164 69.38363647 194.19487 C66.86700558 203.16354931 67.85910731 209.92260069 71.29330444 218.47026062 C77.07596035 233.91722003 78.36570922 249.78350161 78.98080444 266.15776062 C83.75200937 261.9596734 86.11578257 255.7208251 88.98080444 250.15776062 C89.3130603 249.51416595 89.64531616 248.87057129 89.98764038 248.20747375 C122.0032656 185.9090575 124.67931058 120.74385194 126.98080444 52.15776062 C126.40769531 52.0583316 125.83458618 51.95890259 125.24411011 51.85646057 C119.13980648 50.79559933 113.03780542 49.72213292 106.93685913 48.64213562 C104.67633072 48.243557 102.41527976 47.8479279 100.15365601 47.45561218 C80.59223793 44.05892783 61.1452243 40.08683928 42.27377319 33.82182312 C39.89840487 33.01867198 39.89840487 33.01867198 36.98080444 33.15776062 Z " fill="#080808" transform="translate(212.01919555664063,9.842239379882813)"/>
<path d="M0 0 C0.56687261 13.39498992 -1.37084337 23.72409639 -10.5625 33.8125 C-17.25210694 39.81599341 -21.78431437 40.29294029 -30.73046875 40.22265625 C-36.63497702 39.82055712 -41.49049247 37.94581909 -46 34 C-45.90625 32.3125 -45.90625 32.3125 -45 30 C-42.86827758 28.17965276 -40.79334296 26.5904048 -38.5 25 C-37.83726074 24.52723633 -37.17452148 24.05447266 -36.49169922 23.56738281 C-34.33565635 22.03345915 -32.16882129 20.51579158 -30 19 C-27.77278146 17.43324005 -25.54675639 15.86479841 -23.32104492 14.29589844 C-21.8646081 13.27064464 -20.40645145 12.24782935 -18.9465332 11.22753906 C-14.39346289 8.03421637 -9.99809523 4.71845841 -5.76171875 1.109375 C-4 0 -4 0 0 0 Z " fill="#D70F16" transform="translate(201,138)"/>
<path d="M0 0 C0.66 0 1.32 0 2 0 C3.3046875 1.36328125 3.3046875 1.36328125 4.875 3.3125 C12.79162893 12.6087904 22.43912503 20.46278298 32 28 C32.90613037 28.71494629 32.90613037 28.71494629 33.83056641 29.44433594 C44.88732027 38.13080675 56.31789451 46.17904413 68 54 C67.01 54.495 67.01 54.495 66 55 C49.1750788 44.08517817 32.88201878 32.4742062 18 19 C16.95175049 18.05229736 16.95175049 18.05229736 15.88232422 17.08544922 C13.66185541 15.06723901 11.45342607 13.0367949 9.25 11 C8.55753174 10.36457275 7.86506348 9.72914551 7.15161133 9.07446289 C6.50861084 8.47239014 5.86561035 7.87031738 5.203125 7.25 C4.63239258 6.71890625 4.06166016 6.1878125 3.47363281 5.640625 C1.88800849 3.87531761 0.9613121 2.15972438 0 0 Z " fill="#7B7A7A" transform="translate(86,334)"/>
<path d="M0 0 C0.054348 2.0622048 0.09294961 4.12482816 0.125 6.1875 C0.14820313 7.33605469 0.17140625 8.48460937 0.1953125 9.66796875 C0.00484152 12.91740372 -0.60639873 15.08660521 -2 18 C-3.7317728 12.8046816 -2.48096748 7.39752399 -2 2 C-7.61 5.96 -13.22 9.92 -19 14 C-19.66 13.67 -20.32 13.34 -21 13 C-18.26216703 10.81759172 -15.50789182 8.65698531 -12.75 6.5 C-11.97269531 5.87996094 -11.19539062 5.25992188 -10.39453125 4.62109375 C-9.26337891 3.74130859 -9.26337891 3.74130859 -8.109375 2.84375 C-7.07248535 2.02680664 -7.07248535 2.02680664 -6.01464844 1.19335938 C-4 0 -4 0 0 0 Z " fill="#9A5E5F" transform="translate(201,138)"/>
<path d="M0 0 C10.27884572 1.75207597 21.57613034 15.35091485 27.84765625 23.359375 C28.22792969 23.90078125 28.60820313 24.4421875 29 25 C28.67 25.66 28.34 26.32 28 27 C27.59797363 26.55720703 27.19594727 26.11441406 26.78173828 25.65820312 C15.09450365 11.54756108 15.09450365 11.54756108 0 2 C0 1.34 0 0.68 0 0 Z " fill="#4D4C4B" transform="translate(61,209)"/>
<path d="M0 0 C0.66 0.33 1.32 0.66 2 1 C0.625 3 0.625 3 -1 5 C-1.66 5 -2.32 5 -3 5 C-3 5.66 -3 6.32 -3 7 C3.56704216 9.78601789 9.94248943 11.25710415 17 12 C17 12.33 17 12.66 17 13 C8.62080426 13.46360304 1.60308698 12.77770111 -5 7 C-4.60196439 4.11424181 -4.20990931 3.17810487 -1.9375 1.25 C-1.298125 0.8375 -0.65875 0.425 0 0 Z " fill="#C09B9D" transform="translate(160,165)"/>
<path d="M0 0 C0.66 0.33 1.32 0.66 2 1 C-0.97 6.94 -3.94 12.88 -7 19 C-7.99 18.67 -8.98 18.34 -10 18 C-10 17.34 -10 16.68 -10 16 C-9.40703125 15.42765625 -8.8140625 14.8553125 -8.203125 14.265625 C-5.64115388 11.63097385 -4.3320081 9.05783511 -2.75 5.75 C-2.22921875 4.67234375 -1.7084375 3.5946875 -1.171875 2.484375 C-0.78515625 1.66453125 -0.3984375 0.8446875 0 0 Z " fill="#62605F" transform="translate(52,222)"/>
<path d="M0 0 C4.57838 -0.44360903 6.99870793 0.84655412 10.8125 3.3125 C11.78832031 3.92738281 12.76414063 4.54226562 13.76953125 5.17578125 C14.50558594 5.77777344 15.24164063 6.37976563 16 7 C16 7.99 16 8.98 16 10 C15.43152344 9.60167969 14.86304688 9.20335938 14.27734375 8.79296875 C9.64274107 5.61296591 5.2500166 3.01064466 0 1 C0 0.67 0 0.34 0 0 Z " fill="#5A5957" transform="translate(192,117)"/>
<path d="M0 0 C-0.33 0.66 -0.66 1.32 -1 2 C-6.25530593 3.34751434 -11.61579398 3.09576651 -17 3 C-17 2.67 -17 2.34 -17 2 C-11.19233704 0.4943096 -6.0018137 -0.21824777 0 0 Z " fill="#393835" transform="translate(53,56)"/>
<path d="M0 0 C3.52238047 1.56367357 6.27123994 3.69495889 9.25 6.125 C10.14203125 6.84945313 11.0340625 7.57390625 11.953125 8.3203125 C12.62859375 8.87460937 13.3040625 9.42890625 14 10 C13.34 10.66 12.68 11.32 12 12 C9.99698881 10.19073245 7.99751914 8.377813 6 6.5625 C5.42765625 6.04623047 4.8553125 5.52996094 4.265625 4.99804688 C2.82480421 3.6858708 1.41014216 2.34509096 0 1 C0 0.67 0 0.34 0 0 Z " fill="#5F5E5E" transform="translate(102,350)"/>
<path d="M0 0 C0.66 0.33 1.32 0.66 2 1 C0.625 3 0.625 3 -1 5 C-1.66 5 -2.32 5 -3 5 C-3.33 5.99 -3.66 6.98 -4 8 C-4.33 6.68 -4.66 5.36 -5 4 C-3.35 2.68 -1.7 1.36 0 0 Z " fill="#B15754" transform="translate(160,165)"/>
<path d="M0 0 C0.99 0.33 1.98 0.66 3 1 C2.34 1 1.68 1 1 1 C0.731875 1.639375 0.46375 2.27875 0.1875 2.9375 C-1 5 -1 5 -4 6 C-4.33 6.66 -4.66 7.32 -5 8 C-4.45773019 4.20411134 -2.79872437 2.52788007 0 0 Z " fill="#393736" transform="translate(6,47)"/>
<path d="M0 0 C1.32 0.33 2.64 0.66 4 1 C3.67 2.32 3.34 3.64 3 5 C3 4.34 3 3.68 3 3 C1.02 3.66 -0.96 4.32 -3 5 C-2.01 3.35 -1.02 1.7 0 0 Z " fill="#7B7B78" transform="translate(123,36)"/>
<path d="M0 0 C3.96 0.99 3.96 0.99 8 2 C6.68 2.33 5.36 2.66 4 3 C3.67 3.66 3.34 4.32 3 5 C3 4.34 3 3.68 3 3 C1.35 3 -0.3 3 -2 3 C-1.34 2.67 -0.68 2.34 0 2 C0 1.34 0 0.68 0 0 Z " fill="#6D6C6A" transform="translate(245,40)"/>
</svg>
